<svg width="1348" height="16" viewBox="0 0 1348 16" fill="none" xmlns="http://www.w3.org/2000/svg">
<path d="M0.292892 8.70711C-0.0976315 8.31658 -0.0976315 7.68342 0.292892 7.29289L6.65685 0.928932C7.04738 0.538408 7.68054 0.538408 8.07107 0.928932C8.46159 1.31946 8.46159 1.95262 8.07107 2.34315L2.41421 8L8.07107 13.6569C8.46159 14.0474 8.46159 14.6805 8.07107 15.0711C7.68054 15.4616 7.04738 15.4616 6.65685 15.0711L0.292892 8.70711ZM26 9H1V7H26V9Z" fill="#01CD7D"/>
<path d="M1347.71 8.70711C1348.1 8.31658 1348.1 7.68342 1347.71 7.29289L1341.34 0.928932C1340.95 0.538408 1340.32 0.538408 1339.93 0.928932C1339.54 1.31946 1339.54 1.95262 1339.93 2.34315L1345.59 8L1339.93 13.6569C1339.54 14.0474 1339.54 14.6805 1339.93 15.0711C1340.32 15.4616 1340.95 15.4616 1341.34 15.0711L1347.71 8.70711ZM1322 9H1347V7H1322V9Z" fill="#01CD7D"/>
</svg>
